<svg fill="#000000" xmlns="http://www.w3.org/2000/svg" xmlns:xlink="http://www.w3.org/1999/xlink" version="1.1" x="0px" y="0px" viewBox="0 0 48 48" enable-background="new 0 0 48 48" xml:space="preserve"><g><g><path d="M21.56882,6.10052c0.38379-0.33789,0.95703-0.33643,1.33496,0.00439c0.15137,0.13538,3.62891,3.17798,6.3042,1.19818    C27.55466,3.01752,23.63962,0,19.0798,0C14.11691,0,9.91647,3.58795,8.57394,8.49457    C11.01706,9.01221,17.33517,9.86591,21.56882,6.10052z"></path></g><g><path d="M19.0798,27.16998c6.35986,0,10.96997-9.15002,10.96997-15.32001c0-0.86987-0.09277-1.71552-0.25781-2.53223    c-2.67236,1.49036-5.74634,0.15747-7.55225-1.17816c-2.88672,2.21826-6.3877,2.81055-9.30469,2.81055    c-1.97046,0-3.66675-0.26978-4.73291-0.49182c-0.0498,0.45728-0.08228,0.92004-0.08228,1.39166    C8.11984,18.01996,12.72971,27.16998,19.0798,27.16998z"></path></g><g><path d="M32.69968,39.28998c-0.87988,1.57001-1.6499,3.22998-2.34985,5.03003c-0.61039,1.5518-2.30023,2.31036-3.89014,1.71997    c-1.53979-0.59998-2.30005-2.33997-1.70996-3.88c0.88013-2.27997,1.87012-4.34998,3-6.32001    c0-2.23999,0.3501-4.25,0.95996-6.03998c-0.26001-0.01001-0.52002-0.02002-0.78003-0.02002c-0.06982,0-0.13989,0-0.20996,0.02002    c-5.83008,1.26001-11.61987,1.26001-17.27002,0c-0.06982-0.02002-0.13989-0.02002-0.20996-0.02002    c-5.6499,0-10.23999,4.40002-10.23999,9.79999v5.68005C-0.00028,46.76996,1.25973,48,2.81979,48h32.53003    c1.55005,0,2.82007-1.23004,2.82007-2.73999v-7.41003c0-0.33002-0.02002-0.65997-0.05005-0.96997    C35.95969,38.10999,33.91989,38.88,32.69968,39.28998z"></path></g><g><path d="M47.86984,18.89996c-0.19019-0.35999-0.59009-0.54999-1-0.5c-0.1687,0.01984-17.50366,2.4538-17.11426,17.97314    c-1.07153,1.80737-2.14453,3.94299-3.13892,6.50427c-0.19922,0.51465,0.05566,1.09424,0.57031,1.29395    c0.51185,0.19929,1.09295-0.05197,1.29492-0.57031c0.91113-2.34772,1.89185-4.3139,2.87012-5.98474    c1.90332-0.55884,11.15967-3.61652,12.91772-10.56628c0.08008-0.31,0.01001-0.64001-0.18994-0.88    c-0.19995-0.25-0.51001-0.39001-0.83008-0.37L43.13962,25.81l4.64014-5.79004    C48.03976,19.70001,48.06979,19.26001,47.86984,18.89996z"></path></g></g></svg>