<svg fill="#000000" xmlns:x="http://ns.adobe.com/Extensibility/1.0/" xmlns:i="http://ns.adobe.com/AdobeIllustrator/10.0/" xmlns:graph="http://ns.adobe.com/Graphs/1.0/" xmlns="http://www.w3.org/2000/svg" xmlns:xlink="http://www.w3.org/1999/xlink" version="1.1" x="0px" y="0px" viewBox="0 0 100 100" style="enable-background:new 0 0 100 100;" xml:space="preserve"><g><g i:extraneous="self"><g><path d="M88.5,16.8l-8.4,0V12c0-1.9-1.5-3.4-3.3-3.4h-5c-1.8,0-3.3,1.5-3.3,3.4v4.8H41.2V12c0-1.9-1.5-3.4-3.3-3.4h-5     c-1.8,0-3.3,1.5-3.3,3.4v4.8h-6.5c-5.2,0-10.1,3.7-11.1,8.3L2.7,69.5c-0.5,2.4,0.1,4.7,1.6,6.5c1.7,2,4.3,3.2,7.2,3.2H12v3.1     c0,5,4.1,9,9,9h67.4c5,0,9-4.1,9-9V25.8C97.5,20.8,93.4,16.8,88.5,16.8z M22.9,23.7h63.6c1,0,1.6,0.3,1.8,0.6     c0.1,0.1,0.2,0.3,0.1,0.7l-0.9,4.6H18l0.7-3.2C19,25.2,20.8,23.7,22.9,23.7z M9.6,71.6c-0.1-0.1-0.2-0.3-0.1-0.7l7.1-34.3h69.5     l-6.8,32.9c-0.3,1.3-2.1,2.8-4.3,2.8H11.5C10.5,72.3,9.9,71.9,9.6,71.6z M88.5,84.4H21.1c-1.2,0-2.1-0.9-2.1-2.1v-3.1h56     c5.2,0,10.1-3.7,11.1-8.3l4.5-21.5v32.9C90.5,83.4,89.6,84.4,88.5,84.4z"></path><path d="M51.1,57.1h-8c-1.8,0-3.5,1.2-3.8,2.8L38.4,64c-0.3,1.5,0.9,2.8,2.7,2.8h8c1.8,0,3.5-1.2,3.8-2.8l0.9-4.1     C54.1,58.3,52.9,57.1,51.1,57.1z"></path><path d="M30.6,57.1h-8c-1.8,0-3.5,1.2-3.8,2.8L17.9,64c-0.3,1.5,0.9,2.8,2.7,2.8h8c1.8,0,3.5-1.2,3.8-2.8l0.9-4.1     C33.6,58.3,32.4,57.1,30.6,57.1z"></path><path d="M71.6,57.1h-8c-1.8,0-3.5,1.2-3.8,2.8L58.9,64c-0.3,1.5,0.9,2.8,2.7,2.8h8c1.8,0,3.5-1.2,3.8-2.8l0.9-4.1     C74.6,58.3,73.4,57.1,71.6,57.1z"></path><path d="M54.2,41.8h-8c-1.8,0-3.5,1.2-3.8,2.8l-0.9,4.1c-0.3,1.5,0.9,2.8,2.7,2.8h8c1.8,0,3.5-1.2,3.8-2.8l0.9-4.1     C57.2,43.1,56,41.8,54.2,41.8z"></path><path d="M33.8,41.8h-8c-1.8,0-3.5,1.2-3.8,2.8l-0.9,4.1c-0.3,1.5,0.9,2.8,2.7,2.8h8c1.8,0,3.5-1.2,3.8-2.8l0.9-4.1     C36.8,43.1,35.6,41.8,33.8,41.8z"></path><path d="M64.7,51.5h8c1.8,0,3.5-1.2,3.8-2.8l0.9-4.1c0.3-1.5-0.9-2.8-2.7-2.8h-8c-1.8,0-3.5,1.2-3.8,2.8l-0.9,4.1     C61.7,50.3,62.9,51.5,64.7,51.5z"></path></g></g></g></svg>