<svg fill="#000000" xmlns="http://www.w3.org/2000/svg" xmlns:xlink="http://www.w3.org/1999/xlink" viewBox="0 0 22 22" version="1.1" x="0px" y="0px"><title>cat_7</title><desc>Created with Sketch.</desc><g stroke="none" stroke-width="1" fill="none" fill-rule="evenodd"><g transform="translate(-37.000000, -59.000000)" fill-rule="nonzero" fill="#000000"><path d="M39,67 L45,67 L45,61 L39,61 L39,67 Z M37,60.999615 C37,59.8952581 37.8874333,59 38.999615,59 L45.000385,59 C46.1047419,59 47,59.8874333 47,60.999615 L47,67.000385 C47,68.1047419 46.1125667,69 45.000385,69 L38.999615,69 C37.8952581,69 37,68.1125667 37,67.000385 L37,60.999615 Z M39,79 L45,79 L45,73 L39,73 L39,79 Z M37,72.999615 C37,71.8952581 37.8874333,71 38.999615,71 L45.000385,71 C46.1047419,71 47,71.8874333 47,72.999615 L47,79.000385 C47,80.1047419 46.1125667,81 45.000385,81 L38.999615,81 C37.8952581,81 37,80.1125667 37,79.000385 L37,72.999615 Z M51,79 L57,79 L57,73 L51,73 L51,79 Z M49,72.999615 C49,71.8952581 49.8874333,71 50.999615,71 L57.000385,71 C58.1047419,71 59,71.8874333 59,72.999615 L59,79.000385 C59,80.1047419 58.1125667,81 57.000385,81 L50.999615,81 C49.8952581,81 49,80.1125667 49,79.000385 L49,72.999615 Z M51,67 L57,67 L57,61 L51,61 L51,67 Z M49,60.999615 C49,59.8952581 49.8874333,59 50.999615,59 L57.000385,59 C58.1047419,59 59,59.8874333 59,60.999615 L59,67.000385 C59,68.1047419 58.1125667,69 57.000385,69 L50.999615,69 C49.8952581,69 49,68.1125667 49,67.000385 L49,60.999615 Z"></path></g></g></svg>