<svg fill="#000000" xmlns="http://www.w3.org/2000/svg" xmlns:xlink="http://www.w3.org/1999/xlink" version="1.1" x="0px" y="0px" viewBox="0 0 100 100" enable-background="new 0 0 100 100" xml:space="preserve"><g><path d="M84.389,47.295c-1.491,0-2.704,1.213-2.704,2.705c0,1.492,1.213,2.706,2.704,2.706c1.492,0,2.705-1.214,2.705-2.706   C87.094,48.509,85.881,47.295,84.389,47.295z"></path><path d="M92.353,45.937L77.93,30.156c-1.892-2.072-5.713-3.757-8.519-3.757H11.69c-3.077,0-5.58,2.504-5.58,5.582   c0,0.08,0.011,0.161,0.033,0.241L11.298,50L6.145,67.776c-0.023,0.084-0.034,0.165-0.034,0.245c0,3.077,2.503,5.58,5.58,5.58   h57.721c2.806,0,6.627-1.685,8.519-3.757l14.423-15.781C94.401,51.823,94.401,48.178,92.353,45.937z M84.389,54.463   c-2.46,0-4.461-2.002-4.461-4.463c0-2.461,2.001-4.462,4.461-4.462c2.461,0,4.463,2.002,4.463,4.462   C88.852,52.461,86.85,54.463,84.389,54.463z"></path></g></svg>