<svg fill="#000000" xmlns="http://www.w3.org/2000/svg" xmlns:xlink="http://www.w3.org/1999/xlink" version="1.1" x="0px" y="0px" viewBox="0 0 66 66" style="enable-background:new 0 0 66 66;" xml:space="preserve"><g><path d="M44.3,14.5c-4,0-7.2,3.3-7.2,7.2s3.3,7.2,7.2,7.2s7.2-3.3,7.2-7.2S48.3,14.5,44.3,14.5z M44.3,26c-2.3,0-4.2-1.9-4.2-4.2   s1.9-4.2,4.2-4.2s4.2,1.9,4.2,4.2S46.6,26,44.3,26z"></path><path d="M53,6.2L37.5,6.7c-2.5,0.2-4.9,1.3-6.6,3L8.5,32.1c-3.1,3.1-3.1,8.1,0,11.2l14.2,14.2c1.5,1.5,3.6,2.3,5.6,2.3   c2,0,4-0.8,5.6-2.3l22.3-22.3c1.8-1.8,2.9-4.1,3-6.7L59.8,13c0.1-1.8-0.6-3.6-1.9-4.9C56.6,6.9,54.8,6.2,53,6.2z M56.3,28.3   c-0.1,1.8-0.9,3.5-2.2,4.7L31.8,55.3c-1.9,1.9-5,1.9-6.9,0L10.7,41.1c-1.9-1.9-1.9-5,0-6.9L33,11.9c1.3-1.3,2.9-2,4.7-2.2l15.4-0.5   c1,0,2,0.3,2.7,1.1c0.7,0.7,1.1,1.7,1.1,2.7L56.3,28.3z"></path></g></svg>