<svg xmlns="http://www.w3.org/2000/svg" xmlns:xlink="http://www.w3.org/1999/xlink" width="100" height="100" viewBox="0 0 100 100"><g><g transform="translate(50 50) scale(0.69 0.69) rotate(180) translate(-50 -50)" style="fill:#000000"><svg fill="#000000" xmlns="http://www.w3.org/2000/svg" xmlns:xlink="http://www.w3.org/1999/xlink" version="1.1" x="0px" y="0px" viewBox="0 0 100 100" enable-background="new 0 0 100 100" xml:space="preserve"><g><path d="M91.249,25.106H20.706c-1.343,0-2.582,0.723-3.243,1.893L5.508,48.169c-0.642,1.136-0.642,2.526,0,3.662l11.955,21.171   c0.66,1.17,1.899,1.893,3.243,1.893h70.543c2.057,0,3.724-1.667,3.724-3.724V28.829C94.973,26.773,93.306,25.106,91.249,25.106z    M39.619,36.235h30.752v5.272H39.619V36.235z M22.047,56.15c-3.397,0-6.15-2.754-6.15-6.15c0-3.397,2.754-6.15,6.15-6.15   s6.15,2.754,6.15,6.15C28.197,53.397,25.444,56.15,22.047,56.15z M57.192,63.765H39.619v-5.272h17.573V63.765z M77.107,52.636   H39.619v-5.272h37.488V52.636z"></path></g></svg></g></g></svg>